<svg width="1239" height="1080" viewBox="0 0 1239 1080" fill="none" xmlns="http://www.w3.org/2000/svg">
<path d="M445.098 -184.902C288.258 -184.902 134.939 -138.393 4.53113 -51.257C-125.877 35.8789 -227.518 159.729 -287.538 304.63C-347.558 449.532 -363.262 608.978 -332.664 762.805C-302.066 916.632 -226.54 1057.93 -115.637 1168.83C-4.73431 1279.74 136.565 1355.26 290.392 1385.86C444.219 1416.46 603.664 1400.76 748.566 1340.73C893.468 1280.71 1017.32 1179.07 1104.45 1048.67C1191.59 918.257 1238.1 764.939 1238.1 608.098H920.898C920.898 702.203 892.993 794.194 840.712 872.439C788.43 950.684 714.12 1011.67 627.179 1047.68C540.238 1083.69 444.57 1093.11 352.274 1074.76C259.978 1056.4 175.199 1011.08 108.657 944.54C42.1151 877.998 -3.20047 793.219 -21.5593 700.922C-39.9182 608.626 -30.4958 512.959 5.51642 426.018C41.5286 339.077 102.513 264.767 180.758 212.485C259.003 160.204 350.994 132.298 445.098 132.298V-184.902Z" fill="#35312F" fill-opacity="0.15"/>
<path d="M592 339H916V608H592V339Z" fill="#35312F" fill-opacity="0.15"/>
</svg>
