<svg width="1586" height="1080" viewBox="0 0 1586 1080" fill="none" xmlns="http://www.w3.org/2000/svg">
<path d="M793 -217C636.159 -217 482.841 -170.491 352.433 -83.3554C222.025 3.78055 120.384 127.63 60.3635 272.532C0.343239 417.434 -15.3608 576.88 15.2373 730.707C45.8354 884.534 121.361 1025.83 232.264 1136.74C343.167 1247.64 484.466 1323.16 638.293 1353.76C792.12 1384.36 951.566 1368.66 1096.47 1308.64C1241.37 1248.62 1365.22 1146.98 1452.36 1016.57C1539.49 886.159 1586 732.841 1586 576H1268.8C1268.8 670.104 1240.89 762.095 1188.61 840.34C1136.33 918.585 1062.02 979.57 975.081 1015.58C888.14 1051.59 792.472 1061.02 700.176 1042.66C607.88 1024.3 523.1 978.983 456.559 912.441C390.017 845.9 344.701 761.12 326.342 668.824C307.983 576.528 317.406 480.86 353.418 393.919C389.43 306.978 450.415 232.668 528.66 180.387C606.905 128.105 698.896 100.2 793 100.2V-217Z" fill="black" fill-opacity="0.15"/>
<path d="M939.902 306.902H1263.9V575.902H939.902V306.902Z" fill="black" fill-opacity="0.15"/>
</svg>
